<mxfile host="app.diagrams.net" modified="2023-03-29T23:00:54.084Z" agent="Mozilla/5.0 (Windows NT 10.0; Win64; x64) AppleWebKit/537.36 (KHTML, like Gecko) Chrome/111.0.0.0 Safari/537.36" etag="liQkKFXu5ewOjHneGPFS" version="21.1.1" type="device">
  <diagram name="Page-1" id="bKYP07Ssi2d8VPCtITCf">
    <mxGraphModel dx="2284" dy="696" grid="1" gridSize="10" guides="1" tooltips="1" connect="1" arrows="1" fold="1" page="1" pageScale="1" pageWidth="850" pageHeight="1100" math="0" shadow="0">
      <root>
        <mxCell id="0" />
        <mxCell id="1" parent="0" />
        <mxCell id="G4IyQlzxRZkid_5XF4d--63" value="" style="rounded=1;whiteSpace=wrap;html=1;" vertex="1" parent="1">
          <mxGeometry x="670" y="420" width="80" height="100" as="geometry" />
        </mxCell>
        <mxCell id="G4IyQlzxRZkid_5XF4d--62" value="" style="rounded=1;whiteSpace=wrap;html=1;" vertex="1" parent="1">
          <mxGeometry x="725" y="220" width="80" height="100" as="geometry" />
        </mxCell>
        <mxCell id="G4IyQlzxRZkid_5XF4d--59" value="" style="rounded=1;whiteSpace=wrap;html=1;" vertex="1" parent="1">
          <mxGeometry x="540" y="260" width="80" height="100" as="geometry" />
        </mxCell>
        <mxCell id="G4IyQlzxRZkid_5XF4d--58" value="" style="rounded=1;whiteSpace=wrap;html=1;" vertex="1" parent="1">
          <mxGeometry x="-105" y="150" width="80" height="100" as="geometry" />
        </mxCell>
        <mxCell id="G4IyQlzxRZkid_5XF4d--57" value="" style="rounded=1;whiteSpace=wrap;html=1;" vertex="1" parent="1">
          <mxGeometry x="-130" y="310" width="110" height="100" as="geometry" />
        </mxCell>
        <mxCell id="G4IyQlzxRZkid_5XF4d--1" value="Search Movie" style="ellipse;whiteSpace=wrap;html=1;" vertex="1" parent="1">
          <mxGeometry x="240" y="130" width="120" height="50" as="geometry" />
        </mxCell>
        <mxCell id="G4IyQlzxRZkid_5XF4d--2" value="Cancel Ticket" style="ellipse;whiteSpace=wrap;html=1;" vertex="1" parent="1">
          <mxGeometry x="250" y="210" width="120" height="50" as="geometry" />
        </mxCell>
        <mxCell id="G4IyQlzxRZkid_5XF4d--3" value="Pay for Ticket" style="ellipse;whiteSpace=wrap;html=1;" vertex="1" parent="1">
          <mxGeometry x="250" y="290" width="120" height="50" as="geometry" />
        </mxCell>
        <mxCell id="G4IyQlzxRZkid_5XF4d--4" value="Receive Ticket" style="ellipse;whiteSpace=wrap;html=1;" vertex="1" parent="1">
          <mxGeometry x="260" y="360" width="120" height="50" as="geometry" />
        </mxCell>
        <mxCell id="G4IyQlzxRZkid_5XF4d--15" style="edgeStyle=orthogonalEdgeStyle;rounded=0;orthogonalLoop=1;jettySize=auto;html=1;exitX=1;exitY=0.5;exitDx=0;exitDy=0;entryX=0;entryY=0.5;entryDx=0;entryDy=0;dashed=1;" edge="1" parent="1" source="G4IyQlzxRZkid_5XF4d--5" target="G4IyQlzxRZkid_5XF4d--6">
          <mxGeometry relative="1" as="geometry" />
        </mxCell>
        <mxCell id="G4IyQlzxRZkid_5XF4d--5" value="Select theatre" style="ellipse;whiteSpace=wrap;html=1;" vertex="1" parent="1">
          <mxGeometry x="250" y="40" width="120" height="60" as="geometry" />
        </mxCell>
        <mxCell id="G4IyQlzxRZkid_5XF4d--16" style="edgeStyle=orthogonalEdgeStyle;rounded=0;orthogonalLoop=1;jettySize=auto;html=1;exitX=1;exitY=0.5;exitDx=0;exitDy=0;entryX=0;entryY=0.5;entryDx=0;entryDy=0;dashed=1;" edge="1" parent="1" source="G4IyQlzxRZkid_5XF4d--6" target="G4IyQlzxRZkid_5XF4d--7">
          <mxGeometry relative="1" as="geometry" />
        </mxCell>
        <mxCell id="G4IyQlzxRZkid_5XF4d--6" value="View Times" style="ellipse;whiteSpace=wrap;html=1;" vertex="1" parent="1">
          <mxGeometry x="410" y="45" width="120" height="50" as="geometry" />
        </mxCell>
        <mxCell id="G4IyQlzxRZkid_5XF4d--7" value="View Seats" style="ellipse;whiteSpace=wrap;html=1;" vertex="1" parent="1">
          <mxGeometry x="575" y="45" width="120" height="50" as="geometry" />
        </mxCell>
        <mxCell id="G4IyQlzxRZkid_5XF4d--8" value="Regular" style="shape=umlActor;verticalLabelPosition=bottom;verticalAlign=top;html=1;outlineConnect=0;" vertex="1" parent="1">
          <mxGeometry x="-80" y="160" width="30" height="60" as="geometry" />
        </mxCell>
        <mxCell id="G4IyQlzxRZkid_5XF4d--9" value="Registered User" style="shape=umlActor;verticalLabelPosition=bottom;verticalAlign=top;html=1;outlineConnect=0;" vertex="1" parent="1">
          <mxGeometry x="-90" y="320" width="30" height="60" as="geometry" />
        </mxCell>
        <mxCell id="G4IyQlzxRZkid_5XF4d--10" value="Billing System" style="shape=umlActor;verticalLabelPosition=bottom;verticalAlign=top;html=1;outlineConnect=0;" vertex="1" parent="1">
          <mxGeometry x="565" y="270" width="30" height="60" as="geometry" />
        </mxCell>
        <mxCell id="G4IyQlzxRZkid_5XF4d--11" value="Theatre DB" style="shape=umlActor;verticalLabelPosition=bottom;verticalAlign=top;html=1;outlineConnect=0;" vertex="1" parent="1">
          <mxGeometry x="750" y="235" width="30" height="60" as="geometry" />
        </mxCell>
        <mxCell id="G4IyQlzxRZkid_5XF4d--13" value="Email System" style="shape=umlActor;verticalLabelPosition=bottom;verticalAlign=top;html=1;outlineConnect=0;" vertex="1" parent="1">
          <mxGeometry x="695" y="430" width="30" height="60" as="geometry" />
        </mxCell>
        <mxCell id="G4IyQlzxRZkid_5XF4d--17" value="Select Seats" style="ellipse;whiteSpace=wrap;html=1;" vertex="1" parent="1">
          <mxGeometry x="740" y="45" width="120" height="50" as="geometry" />
        </mxCell>
        <mxCell id="G4IyQlzxRZkid_5XF4d--19" value="Receive Receipt&amp;nbsp;" style="ellipse;whiteSpace=wrap;html=1;" vertex="1" parent="1">
          <mxGeometry x="260" y="420" width="120" height="50" as="geometry" />
        </mxCell>
        <mxCell id="G4IyQlzxRZkid_5XF4d--20" value="Login" style="ellipse;whiteSpace=wrap;html=1;" vertex="1" parent="1">
          <mxGeometry x="260" y="610" width="120" height="40" as="geometry" />
        </mxCell>
        <mxCell id="G4IyQlzxRZkid_5XF4d--24" value="Pay Annual Fee" style="ellipse;whiteSpace=wrap;html=1;" vertex="1" parent="1">
          <mxGeometry x="260" y="480" width="120" height="50" as="geometry" />
        </mxCell>
        <mxCell id="G4IyQlzxRZkid_5XF4d--27" value="" style="endArrow=none;html=1;rounded=0;entryX=0;entryY=0.5;entryDx=0;entryDy=0;exitX=1;exitY=0.5;exitDx=0;exitDy=0;" edge="1" parent="1" source="G4IyQlzxRZkid_5XF4d--4" target="G4IyQlzxRZkid_5XF4d--63">
          <mxGeometry width="50" height="50" relative="1" as="geometry">
            <mxPoint x="620" y="380" as="sourcePoint" />
            <mxPoint x="900" y="450" as="targetPoint" />
          </mxGeometry>
        </mxCell>
        <mxCell id="G4IyQlzxRZkid_5XF4d--28" value="" style="endArrow=none;html=1;rounded=0;entryX=0;entryY=0.5;entryDx=0;entryDy=0;exitX=1;exitY=0.5;exitDx=0;exitDy=0;" edge="1" parent="1" source="G4IyQlzxRZkid_5XF4d--19" target="G4IyQlzxRZkid_5XF4d--63">
          <mxGeometry width="50" height="50" relative="1" as="geometry">
            <mxPoint x="620" y="380" as="sourcePoint" />
            <mxPoint x="670" y="330" as="targetPoint" />
          </mxGeometry>
        </mxCell>
        <mxCell id="G4IyQlzxRZkid_5XF4d--29" value="" style="endArrow=none;html=1;rounded=0;exitX=0;exitY=0.5;exitDx=0;exitDy=0;entryX=1;entryY=0.5;entryDx=0;entryDy=0;" edge="1" parent="1" source="G4IyQlzxRZkid_5XF4d--4" target="G4IyQlzxRZkid_5XF4d--58">
          <mxGeometry width="50" height="50" relative="1" as="geometry">
            <mxPoint x="-20" y="350" as="sourcePoint" />
            <mxPoint x="100" y="200" as="targetPoint" />
          </mxGeometry>
        </mxCell>
        <mxCell id="G4IyQlzxRZkid_5XF4d--30" value="" style="endArrow=none;html=1;rounded=0;entryX=1;entryY=0.5;entryDx=0;entryDy=0;exitX=0;exitY=0.5;exitDx=0;exitDy=0;" edge="1" parent="1" source="G4IyQlzxRZkid_5XF4d--19" target="G4IyQlzxRZkid_5XF4d--58">
          <mxGeometry width="50" height="50" relative="1" as="geometry">
            <mxPoint x="80" y="390" as="sourcePoint" />
            <mxPoint x="130" y="340" as="targetPoint" />
          </mxGeometry>
        </mxCell>
        <mxCell id="G4IyQlzxRZkid_5XF4d--32" value="" style="endArrow=none;html=1;rounded=0;exitX=1;exitY=0.5;exitDx=0;exitDy=0;entryX=0;entryY=0.5;entryDx=0;entryDy=0;" edge="1" parent="1" source="G4IyQlzxRZkid_5XF4d--58" target="G4IyQlzxRZkid_5XF4d--1">
          <mxGeometry width="50" height="50" relative="1" as="geometry">
            <mxPoint x="70" y="130" as="sourcePoint" />
            <mxPoint x="120" y="80" as="targetPoint" />
          </mxGeometry>
        </mxCell>
        <mxCell id="G4IyQlzxRZkid_5XF4d--33" value="" style="endArrow=none;html=1;rounded=0;entryX=1;entryY=0.5;entryDx=0;entryDy=0;exitX=0;exitY=0.5;exitDx=0;exitDy=0;" edge="1" parent="1" source="G4IyQlzxRZkid_5XF4d--62" target="G4IyQlzxRZkid_5XF4d--1">
          <mxGeometry width="50" height="50" relative="1" as="geometry">
            <mxPoint x="590" y="270" as="sourcePoint" />
            <mxPoint x="640" y="220" as="targetPoint" />
          </mxGeometry>
        </mxCell>
        <mxCell id="G4IyQlzxRZkid_5XF4d--38" value="" style="endArrow=none;html=1;rounded=0;entryX=1;entryY=0.5;entryDx=0;entryDy=0;exitX=0;exitY=0.5;exitDx=0;exitDy=0;" edge="1" parent="1" source="G4IyQlzxRZkid_5XF4d--3" target="G4IyQlzxRZkid_5XF4d--58">
          <mxGeometry width="50" height="50" relative="1" as="geometry">
            <mxPoint x="20" y="260" as="sourcePoint" />
            <mxPoint x="70" y="210" as="targetPoint" />
          </mxGeometry>
        </mxCell>
        <mxCell id="G4IyQlzxRZkid_5XF4d--40" value="" style="endArrow=none;html=1;rounded=0;exitX=1;exitY=0.5;exitDx=0;exitDy=0;entryX=0;entryY=0.5;entryDx=0;entryDy=0;" edge="1" parent="1" source="G4IyQlzxRZkid_5XF4d--3" target="G4IyQlzxRZkid_5XF4d--59">
          <mxGeometry width="50" height="50" relative="1" as="geometry">
            <mxPoint x="540" y="290" as="sourcePoint" />
            <mxPoint x="590" y="240" as="targetPoint" />
          </mxGeometry>
        </mxCell>
        <mxCell id="G4IyQlzxRZkid_5XF4d--44" value="" style="endArrow=classic;html=1;rounded=0;exitX=1;exitY=0.5;exitDx=0;exitDy=0;entryX=0;entryY=0.5;entryDx=0;entryDy=0;dashed=1;" edge="1" parent="1" source="G4IyQlzxRZkid_5XF4d--7" target="G4IyQlzxRZkid_5XF4d--17">
          <mxGeometry width="50" height="50" relative="1" as="geometry">
            <mxPoint x="640" y="-60" as="sourcePoint" />
            <mxPoint x="690" y="-110" as="targetPoint" />
          </mxGeometry>
        </mxCell>
        <mxCell id="G4IyQlzxRZkid_5XF4d--45" value="" style="endArrow=classic;html=1;rounded=0;exitX=0.5;exitY=0;exitDx=0;exitDy=0;entryX=0.5;entryY=1;entryDx=0;entryDy=0;dashed=1;" edge="1" parent="1" source="G4IyQlzxRZkid_5XF4d--3" target="G4IyQlzxRZkid_5XF4d--2">
          <mxGeometry width="50" height="50" relative="1" as="geometry">
            <mxPoint x="380" y="290" as="sourcePoint" />
            <mxPoint x="430" y="240" as="targetPoint" />
          </mxGeometry>
        </mxCell>
        <mxCell id="G4IyQlzxRZkid_5XF4d--46" value="Refund Ticket" style="ellipse;whiteSpace=wrap;html=1;" vertex="1" parent="1">
          <mxGeometry x="390" y="200" width="120" height="50" as="geometry" />
        </mxCell>
        <mxCell id="G4IyQlzxRZkid_5XF4d--47" value="" style="endArrow=classic;html=1;rounded=0;exitX=1;exitY=0.5;exitDx=0;exitDy=0;entryX=0;entryY=0.5;entryDx=0;entryDy=0;dashed=1;" edge="1" parent="1" source="G4IyQlzxRZkid_5XF4d--2" target="G4IyQlzxRZkid_5XF4d--46">
          <mxGeometry width="50" height="50" relative="1" as="geometry">
            <mxPoint x="620" y="240" as="sourcePoint" />
            <mxPoint x="670" y="190" as="targetPoint" />
          </mxGeometry>
        </mxCell>
        <mxCell id="G4IyQlzxRZkid_5XF4d--48" value="Register" style="ellipse;whiteSpace=wrap;html=1;" vertex="1" parent="1">
          <mxGeometry x="260" y="550" width="120" height="50" as="geometry" />
        </mxCell>
        <mxCell id="G4IyQlzxRZkid_5XF4d--49" value="" style="endArrow=none;html=1;rounded=0;exitX=0;exitY=0.5;exitDx=0;exitDy=0;entryX=1;entryY=0.5;entryDx=0;entryDy=0;" edge="1" parent="1" source="G4IyQlzxRZkid_5XF4d--48" target="G4IyQlzxRZkid_5XF4d--57">
          <mxGeometry width="50" height="50" relative="1" as="geometry">
            <mxPoint x="-40" y="630" as="sourcePoint" />
            <mxPoint x="-60" y="420" as="targetPoint" />
          </mxGeometry>
        </mxCell>
        <mxCell id="G4IyQlzxRZkid_5XF4d--50" value="" style="endArrow=none;html=1;rounded=0;exitX=1;exitY=0.5;exitDx=0;exitDy=0;entryX=0;entryY=0.5;entryDx=0;entryDy=0;" edge="1" parent="1" source="G4IyQlzxRZkid_5XF4d--48" target="G4IyQlzxRZkid_5XF4d--62">
          <mxGeometry width="50" height="50" relative="1" as="geometry">
            <mxPoint x="420" y="590" as="sourcePoint" />
            <mxPoint x="470" y="540" as="targetPoint" />
          </mxGeometry>
        </mxCell>
        <mxCell id="G4IyQlzxRZkid_5XF4d--53" value="" style="endArrow=none;html=1;rounded=0;entryX=1;entryY=0.5;entryDx=0;entryDy=0;exitX=0;exitY=0.5;exitDx=0;exitDy=0;" edge="1" parent="1" source="G4IyQlzxRZkid_5XF4d--24" target="G4IyQlzxRZkid_5XF4d--57">
          <mxGeometry width="50" height="50" relative="1" as="geometry">
            <mxPoint x="-40" y="630" as="sourcePoint" />
            <mxPoint x="10" y="580" as="targetPoint" />
          </mxGeometry>
        </mxCell>
        <mxCell id="G4IyQlzxRZkid_5XF4d--54" value="" style="endArrow=none;html=1;rounded=0;exitX=1;exitY=0.5;exitDx=0;exitDy=0;entryX=0;entryY=0.5;entryDx=0;entryDy=0;" edge="1" parent="1" source="G4IyQlzxRZkid_5XF4d--24" target="G4IyQlzxRZkid_5XF4d--59">
          <mxGeometry width="50" height="50" relative="1" as="geometry">
            <mxPoint x="400" y="530" as="sourcePoint" />
            <mxPoint x="450" y="480" as="targetPoint" />
          </mxGeometry>
        </mxCell>
        <mxCell id="G4IyQlzxRZkid_5XF4d--56" value="" style="endArrow=classic;html=1;rounded=0;exitX=0.5;exitY=0;exitDx=0;exitDy=0;exitPerimeter=0;entryX=0.5;entryY=1;entryDx=0;entryDy=0;" edge="1" parent="1" source="G4IyQlzxRZkid_5XF4d--9" target="G4IyQlzxRZkid_5XF4d--58">
          <mxGeometry width="50" height="50" relative="1" as="geometry">
            <mxPoint x="-80" y="380" as="sourcePoint" />
            <mxPoint x="-30" y="330" as="targetPoint" />
          </mxGeometry>
        </mxCell>
        <mxCell id="G4IyQlzxRZkid_5XF4d--60" value="" style="endArrow=none;html=1;rounded=0;entryX=1;entryY=0.5;entryDx=0;entryDy=0;exitX=0;exitY=0.5;exitDx=0;exitDy=0;" edge="1" parent="1" source="G4IyQlzxRZkid_5XF4d--20" target="G4IyQlzxRZkid_5XF4d--57">
          <mxGeometry width="50" height="50" relative="1" as="geometry">
            <mxPoint x="10" y="610" as="sourcePoint" />
            <mxPoint x="60" y="560" as="targetPoint" />
          </mxGeometry>
        </mxCell>
        <mxCell id="G4IyQlzxRZkid_5XF4d--61" value="" style="endArrow=none;html=1;rounded=0;exitX=1;exitY=0.5;exitDx=0;exitDy=0;entryX=0;entryY=0.5;entryDx=0;entryDy=0;" edge="1" parent="1" source="G4IyQlzxRZkid_5XF4d--20" target="G4IyQlzxRZkid_5XF4d--62">
          <mxGeometry width="50" height="50" relative="1" as="geometry">
            <mxPoint x="630" y="670" as="sourcePoint" />
            <mxPoint x="840" y="280" as="targetPoint" />
          </mxGeometry>
        </mxCell>
        <mxCell id="G4IyQlzxRZkid_5XF4d--64" value="Receive News" style="ellipse;whiteSpace=wrap;html=1;" vertex="1" parent="1">
          <mxGeometry x="260" y="660" width="120" height="50" as="geometry" />
        </mxCell>
        <mxCell id="G4IyQlzxRZkid_5XF4d--65" value="" style="endArrow=none;html=1;rounded=0;entryX=1;entryY=0.5;entryDx=0;entryDy=0;exitX=0;exitY=0.5;exitDx=0;exitDy=0;" edge="1" parent="1" source="G4IyQlzxRZkid_5XF4d--64" target="G4IyQlzxRZkid_5XF4d--57">
          <mxGeometry width="50" height="50" relative="1" as="geometry">
            <mxPoint x="-10" y="670" as="sourcePoint" />
            <mxPoint x="40" y="620" as="targetPoint" />
          </mxGeometry>
        </mxCell>
        <mxCell id="G4IyQlzxRZkid_5XF4d--66" value="" style="endArrow=none;html=1;rounded=0;exitX=1;exitY=0.5;exitDx=0;exitDy=0;entryX=0;entryY=0.5;entryDx=0;entryDy=0;" edge="1" parent="1" source="G4IyQlzxRZkid_5XF4d--64" target="G4IyQlzxRZkid_5XF4d--62">
          <mxGeometry width="50" height="50" relative="1" as="geometry">
            <mxPoint x="610" y="690" as="sourcePoint" />
            <mxPoint x="660" y="640" as="targetPoint" />
          </mxGeometry>
        </mxCell>
        <mxCell id="G4IyQlzxRZkid_5XF4d--67" value="" style="endArrow=none;html=1;rounded=0;entryX=0;entryY=0.5;entryDx=0;entryDy=0;exitX=1;exitY=0.5;exitDx=0;exitDy=0;" edge="1" parent="1" source="G4IyQlzxRZkid_5XF4d--64" target="G4IyQlzxRZkid_5XF4d--63">
          <mxGeometry width="50" height="50" relative="1" as="geometry">
            <mxPoint x="630" y="660" as="sourcePoint" />
            <mxPoint x="680" y="610" as="targetPoint" />
          </mxGeometry>
        </mxCell>
        <mxCell id="G4IyQlzxRZkid_5XF4d--69" value="Early Access" style="ellipse;whiteSpace=wrap;html=1;" vertex="1" parent="1">
          <mxGeometry x="90" y="190" width="120" height="50" as="geometry" />
        </mxCell>
        <mxCell id="G4IyQlzxRZkid_5XF4d--70" value="" style="endArrow=none;html=1;rounded=0;exitX=1;exitY=0.5;exitDx=0;exitDy=0;entryX=0;entryY=0.5;entryDx=0;entryDy=0;" edge="1" parent="1" source="G4IyQlzxRZkid_5XF4d--57" target="G4IyQlzxRZkid_5XF4d--69">
          <mxGeometry width="50" height="50" relative="1" as="geometry">
            <mxPoint x="30" y="380" as="sourcePoint" />
            <mxPoint x="80" y="330" as="targetPoint" />
          </mxGeometry>
        </mxCell>
        <mxCell id="G4IyQlzxRZkid_5XF4d--71" value="" style="endArrow=none;html=1;rounded=0;exitX=1;exitY=0.5;exitDx=0;exitDy=0;entryX=0;entryY=0.5;entryDx=0;entryDy=0;" edge="1" parent="1" source="G4IyQlzxRZkid_5XF4d--69" target="G4IyQlzxRZkid_5XF4d--1">
          <mxGeometry width="50" height="50" relative="1" as="geometry">
            <mxPoint x="110" y="120" as="sourcePoint" />
            <mxPoint x="160" y="70" as="targetPoint" />
          </mxGeometry>
        </mxCell>
        <mxCell id="G4IyQlzxRZkid_5XF4d--72" value="" style="endArrow=classic;html=1;rounded=0;exitX=0.5;exitY=0;exitDx=0;exitDy=0;entryX=0.5;entryY=1;entryDx=0;entryDy=0;dashed=1;" edge="1" parent="1" source="G4IyQlzxRZkid_5XF4d--1" target="G4IyQlzxRZkid_5XF4d--5">
          <mxGeometry width="50" height="50" relative="1" as="geometry">
            <mxPoint x="130" y="80" as="sourcePoint" />
            <mxPoint x="180" y="30" as="targetPoint" />
          </mxGeometry>
        </mxCell>
      </root>
    </mxGraphModel>
  </diagram>
</mxfile>
